<svg width="1200" height="900" viewBox="0 0 1200 900" fill="none" xmlns="http://www.w3.org/2000/svg">
  <rect width="1200" height="900" fill="#EEE6DA"/>
  <rect x="0" y="0" width="1200" height="900" fill="url(#bg)"/>
  <path d="M-32 124C118 98 207 145 314 189C421 233 521 242 627 195C733 148 861 119 971 156C1081 193 1169 245 1232 259V370C1112 353 1021 383 920 430C819 477 698 474 587 427C476 380 364 353 254 388C144 423 54 479 -32 507V124Z" fill="#D8D0C4"/>
  <path d="M-52 477C67 433 163 442 259 478C355 514 470 567 588 555C706 543 793 481 900 447C1007 413 1120 407 1252 459V648C1136 639 1030 667 921 711C812 755 691 769 576 729C461 689 366 629 259 625C152 621 62 652 -52 705V477Z" fill="#E2DBCF"/>
  <path d="M125 0V900" stroke="#F8F3EC" stroke-width="18"/>
  <path d="M420 0V900" stroke="#F8F3EC" stroke-width="12" stroke-dasharray="22 20"/>
  <path d="M770 0V900" stroke="#F8F3EC" stroke-width="18"/>
  <path d="M1030 0V900" stroke="#F8F3EC" stroke-width="12" stroke-dasharray="22 20"/>
  <path d="M0 188H1200" stroke="#F8F3EC" stroke-width="18"/>
  <path d="M0 452H1200" stroke="#F8F3EC" stroke-width="12" stroke-dasharray="22 20"/>
  <path d="M0 714H1200" stroke="#F8F3EC" stroke-width="18"/>
  <circle cx="845" cy="396" r="116" fill="#0E0E0E" fill-opacity="0.08"/>
  <path d="M845 318C790.876 318 747 361.876 747 416C747 488.875 845 596 845 596C845 596 943 488.875 943 416C943 361.876 899.124 318 845 318ZM845 455C823.461 455 806 437.539 806 416C806 394.461 823.461 377 845 377C866.539 377 884 394.461 884 416C884 437.539 866.539 455 845 455Z" fill="#111111"/>
  <rect x="170" y="620" width="290" height="98" rx="49" fill="#FFFFFF" fill-opacity="0.88"/>
  <text x="210" y="680" fill="#111111" font-size="30" font-family="Arial, sans-serif" letter-spacing="4">BARACUDA</text>
  <defs>
    <linearGradient id="bg" x1="144" y1="72" x2="1080" y2="824" gradientUnits="userSpaceOnUse">
      <stop stop-color="#F5EFE6"/>
      <stop offset="1" stop-color="#E7DED0"/>
    </linearGradient>
  </defs>
</svg>
